HIERARCHY
ROOT joint_Root
{
  OFFSET 0 0 0
  CHANNELS 6 Xposition Yposition Zposition Zrotation Xrotation Yrotation
  JOINT Hips
  {
    OFFSET 0 93.9241 -3
    CHANNELS 6 Xposition Yposition Zposition Zrotation Xrotation Yrotation
    JOINT Spine
    {
      OFFSET 15.7357 0 0
      CHANNELS 6 Xposition Yposition Zposition Zrotation Xrotation Yrotation
      JOINT Chest
      {
        OFFSET 8.98455 -0.406207 0
        CHANNELS 6 Xposition Yposition Zposition Zrotation Xrotation Yrotation
        JOINT Neck
        {
          OFFSET 16.3773 0 0
          CHANNELS 6 Xposition Yposition Zposition Zrotation Xrotation Yrotation
          JOINT Head
          {
            OFFSET 6.45672 0 0
            CHANNELS 6 Xposition Yposition Zposition Zrotation Xrotation Yrotation
            End Site
            {
              OFFSET 0 0 0
            }
          }
        }
        JOINT Shoulder_L
        {
          OFFSET 12.9942 -0.242716 4.98039
          CHANNELS 6 Xposition Yposition Zposition Zrotation Xrotation Yrotation
          JOINT UpperArm_L
          {
            OFFSET 5.34809 0 0
            CHANNELS 6 Xposition Yposition Zposition Zrotation Xrotation Yrotation
            JOINT LowerArm_L
            {
              OFFSET 24.3286 1.87007e-05 0
              CHANNELS 6 Xposition Yposition Zposition Zrotation Xrotation Yrotation
              JOINT Hand_L
              {
                OFFSET 22.2916 0 0
                CHANNELS 6 Xposition Yposition Zposition Zrotation Xrotation Yrotation
                End Site
                {
                  OFFSET 0 0 0
                }
              }
            }
          }
        }
        JOINT Shoulder_R
        {
          OFFSET 12.9945 -0.242716 -4.98039
          CHANNELS 6 Xposition Yposition Zposition Zrotation Xrotation Yrotation
          JOINT UpperArm_R
          {
            OFFSET -5.34813 0 0
            CHANNELS 6 Xposition Yposition Zposition Zrotation Xrotation Yrotation
            JOINT LowerArm_R
            {
              OFFSET -24.3289 0.000322201 0
              CHANNELS 6 Xposition Yposition Zposition Zrotation Xrotation Yrotation
              JOINT Hand_R
              {
                OFFSET -22.2915 -0.000108084 0
                CHANNELS 6 Xposition Yposition Zposition Zrotation Xrotation Yrotation
                End Site
                {
                  OFFSET 0 0 0
                }
              }
            }
          }
        }
      }
    }
    JOINT UpperLeg_L
    {
      OFFSET -2.19248 -6.46944 0
      CHANNELS 6 Xposition Yposition Zposition Zrotation Xrotation Yrotation
      JOINT LowerLeg_L
      {
        OFFSET 39.0811 0 -1.23785e-05
        CHANNELS 6 Xposition Yposition Zposition Zrotation Xrotation Yrotation
        JOINT Foot_L
        {
          OFFSET 40.9854 0 -1.26872e-05
          CHANNELS 6 Xposition Yposition Zposition Zrotation Xrotation Yrotation
          JOINT Toes_L
          {
            OFFSET 11.7543 0 0
            CHANNELS 6 Xposition Yposition Zposition Zrotation Xrotation Yrotation
            End Site
            {
              OFFSET 0 0 0
            }
          }
        }
      }
    }
    JOINT UpperLeg_R
    {
      OFFSET -2.19251 6.46944 0
      CHANNELS 6 Xposition Yposition Zposition Zrotation Xrotation Yrotation
      JOINT LowerLeg_R
      {
        OFFSET -39.0811 -0.00228153 -0.0401928
        CHANNELS 6 Xposition Yposition Zposition Zrotation Xrotation Yrotation
        JOINT Foot_R
        {
          OFFSET -40.9854 0 0
          CHANNELS 6 Xposition Yposition Zposition Zrotation Xrotation Yrotation
          JOINT Toes_R
          {
            OFFSET -11.7543 0 0
            CHANNELS 6 Xposition Yposition Zposition Zrotation Xrotation Yrotation
            End Site
            {
              OFFSET 0 0 0
            }
          }
        }
      }
    }
  }
}
MOTION
Frames:	8
Frame Time:	0.0333333
0 0 0 0 0 -0 -20.881 88.3352 10.1175 93.4682 -61.5021 5.66294 15.7357 5.1072e-06 -5.51765e-07 144.232 83.4271 -145.35 8.98455 -0.406207 -4.3199e-07 0.0356044 10.7392 -2.24286 16.3773 -1.3905e-06 -6.99897e-07 -10.4824 17.1112 -0.393239 6.45672 -1.25837e-06 -1.02172e-07 -1.98319 15.8445 -5.08578 12.9942 -0.242716 4.98039 -91.3752 4.58962 -88.3048 5.34809 -7.22636e-06 -6.2814e-07 -72.4679 8.69162 7.78849 24.3286 1.87007e-05 4.90208e-06 14.5172 5.26483 -70.4815 22.2916 -9.88446e-07 4.63217e-06 29.3637 5.2335 1.86636 12.9945 -0.242716 -4.98039 90.0416 4.98692 -105.478 -5.34813 -1.25947e-06 -3.79883e-06 -75.4053 -0.487938 15.5486 -24.3289 0.000322201 -8.65921e-06 6.98608 4.08876 -59.7853 -22.2915 -0.000108084 -4.47941e-06 48.8064 5.68051 -19.8626 -2.19248 -6.46944 -1.22534e-07 172.841 -3.03495 -14.4875 39.0811 -6.73843e-06 -1.23785e-05 0.244612 -0.240241 40.468 40.9854 -6.48686e-06 -1.26872e-05 10.6308 8.51711 -74.3889 11.7543 -2.30145e-07 3.05095e-06 -0.00237043 0.00221866 -16.5774 -2.19251 6.46944 -1.45247e-06 179.666 18.8279 154.972 -39.0811 -0.00228153 -0.0401928 -0.0538391 0.00476176 78.0418 -40.9854 7.72618e-06 5.99936e-06 7.78772 -10.1603 -27.8812 -11.7543 -5.6619e-06 -5.58687e-06 0.777945 -0.904256 -23.2136 
0 0 0 0 0 -0 -24.1011 90.2863 9.49983 88.5358 -59.0851 0.233163 15.7357 5.1072e-06 -5.51765e-07 142.363 84.9445 -142.505 8.98455 -0.406207 -4.3199e-07 -1.58569 8.0166 -0.173511 16.3773 -1.3905e-06 -6.99897e-07 -9.98341 16.6995 -1.10396 6.45672 -1.25837e-06 -1.02172e-07 -0.724817 17.3579 -5.02073 12.9942 -0.242716 4.98039 -90.7264 2.91212 -90.9979 5.34809 -7.22636e-06 -6.2814e-07 -70.9959 17.5076 -4.84895 24.3286 1.87007e-05 4.90208e-06 16.9516 4.39335 -75.8855 22.2916 -9.88446e-07 4.63217e-06 28.1321 5.25024 1.42751 12.9945 -0.242716 -4.98039 89.8345 3.93909 -102.584 -5.34813 -1.25947e-06 -3.79883e-06 -76.0875 -2.48462 25.6019 -24.3289 0.000322201 -8.65921e-06 4.65814 3.45091 -53.5504 -22.2915 -0.000108084 -4.47941e-06 47.2282 5.68184 -20.4529 -2.19248 -6.46944 -1.22534e-07 177.241 -2.00319 -9.9705 39.0811 -6.73843e-06 -1.23785e-05 0.141609 -0.176367 32.9732 40.9854 -6.48686e-06 -1.26872e-05 9.20285 11.367 -72.6486 11.7543 -2.30145e-07 3.05095e-06 0.0552524 -0.061906 -17.1822 -2.19251 6.46944 -1.45247e-06 -177.397 19.9291 150.888 -39.0811 -0.00228153 -0.0401928 -0.146848 0.031311 75.2099 -40.9854 7.72618e-06 5.99936e-06 14.5316 -14.3262 -31.2352 -11.7543 -5.6619e-06 -5.58687e-06 0.68587 -0.785593 -22.3785 
0 0 0 0 0 -0 -27.2984 92.4716 8.70444 84.3376 -56.2573 -5.12038 15.7357 5.1072e-06 -5.51765e-07 138.22 86.6381 -137.376 8.98455 -0.406207 -4.3199e-07 -3.32774 4.92993 1.83195 16.3773 -1.3905e-06 -6.99897e-07 -9.44153 16.3861 -1.95864 6.45672 -1.25837e-06 -1.02172e-07 -0.344203 19.0236 -5.00589 12.9942 -0.242716 4.98039 -90.0799 0.380224 -93.2108 5.34809 -7.22636e-06 -6.2814e-07 -66.4896 20.8639 -17.8134 24.3286 1.87007e-05 4.90208e-06 22.0244 3.18927 -82.1582 22.2916 -9.88446e-07 4.63217e-06 25.1282 5.26935 0.904919 12.9945 -0.242716 -4.98039 89.8052 2.25154 -100.045 -5.34813 -1.25947e-06 -3.79883e-06 -74.6621 -3.81799 35.2356 -24.3289 0.000322201 -8.65921e-06 3.66898 2.93291 -51.4195 -22.2915 -0.000108084 -4.47941e-06 45.2623 5.68099 -19.9936 -2.19248 -6.46944 -1.22534e-07 -178.194 -2.32243 -6.19615 39.0811 -6.73843e-06 -1.23785e-05 0.0766307 -0.141631 24.088 40.9854 -6.48686e-06 -1.26872e-05 7.64393 15.6972 -66.9993 11.7543 -2.30145e-07 3.05095e-06 0.253472 -0.295406 -19.4138 -2.19251 6.46944 -1.45247e-06 -174.53 20.2889 147.824 -39.0811 -0.00228153 -0.0401928 -0.0923062 0.0290762 68.2238 -40.9854 7.72618e-06 5.99936e-06 16.0298 -20.5611 -32.3289 -11.7543 -5.6619e-06 -5.58687e-06 0.690176 -0.791049 -22.4172 
0 0 0 0 0 -0 -30.4245 94.4454 7.95468 81.4813 -54.9478 -9.29445 15.7357 5.1072e-06 -5.51765e-07 130.683 88.0446 -129.147 8.98455 -0.406207 -4.3199e-07 -4.8326 2.37823 3.17489 16.3773 -1.3905e-06 -6.99897e-07 -9.13053 16.8285 -2.37467 6.45672 -1.25837e-06 -1.02172e-07 -0.250195 20.5404 -4.63707 12.9942 -0.242716 4.98039 -89.3714 -3.02463 -93.2583 5.34809 -7.22636e-06 -6.2814e-07 -63.0807 19.1483 -28.8071 24.3286 1.87007e-05 4.90208e-06 27.2689 0.711456 -88.6173 22.2916 -9.88446e-07 4.63217e-06 22.4478 5.25542 1.2903 12.9945 -0.242716 -4.98039 90.001 -0.00645102 -99.012 -5.34813 -1.25947e-06 -3.79883e-06 -73.3334 -3.54105 43.7359 -24.3289 0.000322201 -8.65921e-06 1.20348 0.97842 -50.9135 -22.2915 -0.000108084 -4.47941e-06 45.0922 5.67908 -19.3001 -2.19248 -6.46944 -1.22534e-07 -174.493 -5.26037 -3.83313 39.0811 -6.73843e-06 -1.23785e-05 0.0213159 -0.0522302 16.6907 40.9854 -6.48686e-06 -1.26872e-05 5.47739 20.85 -57.3612 11.7543 -2.30145e-07 3.05095e-06 0.870438 -0.32935 -26.355 -2.19251 6.46944 -1.45247e-06 -172.651 18.8785 146.473 -39.0811 -0.00228153 -0.0401928 -0.0628844 0.0301506 58.4689 -40.9854 7.72618e-06 5.99936e-06 16.0342 -24.2407 -33.5984 -11.7543 -5.6619e-06 -5.58687e-06 0.699967 -0.80354 -22.5054 
0 0 0 0 0 -0 -33.4911 96.009 7.39361 80.0842 -54.9823 -11.7625 15.7357 5.1072e-06 -5.51765e-07 118.273 88.8218 -116.413 8.98455 -0.406207 -4.3199e-07 -5.70295 0.89634 3.76876 16.3773 -1.3905e-06 -6.99897e-07 -9.20947 17.5056 -2.64108 6.45672 -1.25837e-06 -1.02172e-07 -0.211699 21.4614 -4.35027 12.9942 -0.242716 4.98039 -88.8613 -5.0243 -92.2138 5.34809 -7.22636e-06 -6.2814e-07 -60.1713 15.059 -37.7625 24.3286 1.87007e-05 4.90208e-06 25.9379 -2.06277 -94.2473 22.2916 -9.88446e-07 4.63217e-06 22.8638 5.19339 2.88467 12.9945 -0.242716 -4.98039 90.2523 -2.26195 -98.633 -5.34813 -1.25947e-06 -3.79883e-06 -72.3324 -2.64605 50.5301 -24.3289 0.000322201 -8.65921e-06 -1.33476 -1.10601 -50.3438 -22.2915 -0.000108084 -4.47941e-06 46.5225 5.67716 -18.781 -2.19248 -6.46944 -1.22534e-07 -171.662 -7.48817 -2.21001 39.0811 -6.73843e-06 -1.23785e-05 0.00713805 -0.0251743 11.3611 40.9854 -6.48686e-06 -1.26872e-05 -2.37344 23.7844 -45.0128 11.7543 -2.30145e-07 3.05095e-06 3.6447 1.06068 -32.2688 -2.19251 6.46944 -1.45247e-06 -172.237 16.6711 147.443 -39.0811 -0.00228153 -0.0401928 -0.0492729 0.0366937 47.0965 -40.9854 7.72618e-06 5.99936e-06 15.5765 -21.5126 -36.4276 -11.7543 -5.6619e-06 -5.58687e-06 0.660757 -0.753808 -22.1535 
0 0 0 0 0 -0 -36.6335 97.0358 7.01562 80.4207 -55.5076 -12.0391 15.7357 5.1072e-06 -5.51765e-07 105.819 89.0806 -104.15 8.98455 -0.406207 -4.3199e-07 -5.99909 0.300184 3.35796 16.3773 -1.3905e-06 -6.99897e-07 -9.26306 17.6316 -2.64695 6.45672 -1.25837e-06 -1.02172e-07 -0.435692 21.933 -3.82722 12.9942 -0.242716 4.98039 -88.5108 -6.17504 -91.4123 5.34809 -7.22636e-06 -6.2814e-07 -60.5832 9.67651 -44.2727 24.3286 1.87007e-05 4.90208e-06 22.4696 -3.65499 -98.7629 22.2916 -9.88446e-07 4.63217e-06 22.4254 5.18959 2.97593 12.9945 -0.242716 -4.98039 90.4481 -4.04787 -98.6773 -5.34813 -1.25947e-06 -3.79883e-06 -71.875 -1.95151 55.6481 -24.3289 0.000322201 -8.65921e-06 -2.07785 -1.82312 -48.7376 -22.2915 -0.000108084 -4.47941e-06 48.0056 5.67297 -17.8981 -2.19248 -6.46944 -1.22534e-07 -170.769 -6.59415 0.22177 39.0811 -6.73843e-06 -1.23785e-05 0.00700333 -0.0563853 6.93176 40.9854 -6.48686e-06 -1.26872e-05 -4.57407 22.6845 -36.8992 11.7543 -2.30145e-07 3.05095e-06 2.22281 -1.28057 -34.8238 -2.19251 6.46944 -1.45247e-06 -173.347 14.5353 150.547 -39.0811 -0.00228153 -0.0401928 -0.0255957 0.0245213 35.0593 -40.9854 7.72618e-06 5.99936e-06 13.7016 -15.2495 -39.4106 -11.7543 -5.6619e-06 -5.58687e-06 0.655234 -0.746877 -22.1042 
0 0 0 0 0 -0 -39.9922 97.448 6.71586 82.2086 -56.1151 -10.6731 15.7357 5.1072e-06 -5.51765e-07 103.8 89.1659 -102.704 8.98455 -0.406207 -4.3199e-07 -6.14757 0.264311 2.20934 16.3773 -1.3905e-06 -6.99897e-07 -9.12933 17.4076 -2.55618 6.45672 -1.25837e-06 -1.02172e-07 -0.512793 21.7895 -3.26861 12.9942 -0.242716 4.98039 -88.1861 -7.30738 -91.0192 5.34809 -7.22636e-06 -6.2814e-07 -64.2681 5.38393 -47.8168 24.3286 1.87007e-05 4.90208e-06 22.9608 -5.56751 -102.897 22.2916 -9.88446e-07 4.63217e-06 22.2924 5.16479 3.5755 12.9945 -0.242716 -4.98039 90.6157 -5.46001 -98.5571 -5.34813 -1.25947e-06 -3.79883e-06 -72.1184 -1.49627 58.9764 -24.3289 0.000322201 -8.65921e-06 -2.98277 -2.79348 -46.907 -22.2915 -0.000108084 -4.47941e-06 49.0192 5.67112 -17.5526 -2.19248 -6.46944 -1.22534e-07 -170.741 -4.4072 2.20989 39.0811 -6.73843e-06 -1.23785e-05 0.00644314 -0.0857238 4.66351 40.9854 -6.48686e-06 -1.26872e-05 -6.09258 20.211 -31.0114 11.7543 -2.30145e-07 3.05095e-06 1.58287 -2.66668 -39.295 -2.19251 6.46944 -1.45247e-06 -175.242 12.6444 154.574 -39.0811 -0.00228153 -0.0401928 -0.0278112 0.0345891 23.592 -40.9854 7.72618e-06 5.99936e-06 12.322 -10.4129 -41.3632 -11.7543 -5.6619e-06 -5.58687e-06 0.635342 -0.721935 -21.9267 
0 0 0 0 0 -0 -43.6107 97.2857 6.36101 84.444 -56.6369 -8.99336 15.7357 5.1072e-06 -5.51765e-07 109.864 89.2684 -109.434 8.98455 -0.406207 -4.3199e-07 -6.39154 0.443261 0.886157 16.3773 -1.3905e-06 -6.99897e-07 -9.04003 17.2218 -2.42207 6.45672 -1.25837e-06 -1.02172e-07 -0.188284 21.3316 -3.14823 12.9942 -0.242716 4.98039 -88.0591 -7.51141 -90.4668 5.34809 -7.22636e-06 -6.2814e-07 -66.3677 2.97121 -48.9058 24.3286 1.87007e-05 4.90208e-06 22.2978 -7.09883 -106.772 22.2916 -9.88446e-07 4.63217e-06 26.2948 5.11697 4.73177 12.9945 -0.242716 -4.98039 90.7163 -6.23593 -98.4337 -5.34813 -1.25947e-06 -3.79883e-06 -72.6007 -1.50697 60.7691 -24.3289 0.000322201 -8.65921e-06 -3.5399 -3.45953 -45.8622 -22.2915 -0.000108084 -4.47941e-06 50.3088 5.67213 -17.7317 -2.19248 -6.46944 -1.22534e-07 -170.83 -2.18618 3.25949 39.0811 -6.73843e-06 -1.23785e-05 0.00871859 -0.111184 4.81333 40.9854 -6.48686e-06 -1.26872e-05 -6.67343 18.1651 -28.1847 11.7543 -2.30145e-07 3.05095e-06 1.79002 -3.35561 -44.5286 -2.19251 6.46944 -1.45247e-06 -177.146 10.4201 158.26 -39.0811 -0.00228153 -0.0401928 -0.0267864 0.0671893 14.3601 -40.9854 7.72618e-06 5.99936e-06 11.264 -10.7212 -42.7033 -11.7543 -5.6619e-06 -5.58687e-06 0.641697 -0.729877 -21.9831 
